<?xml version="1.0" encoding="iso-8859-1"?>
<!-- Generator: Adobe Illustrator 17.1.0, SVG Export Plug-In . SVG Version: 6.00 Build 0)  -->
<!DOCTYPE svg PUBLIC "-//W3C//DTD SVG 1.1//EN" "http://www.w3.org/Graphics/SVG/1.1/DTD/svg11.dtd">
<svg version="1.1" id="Layer_1" xmlns="http://www.w3.org/2000/svg" xmlns:xlink="http://www.w3.org/1999/xlink" x="0px" y="0px"
	 viewBox="0 0 118.164 40" style="enable-background:new 0 0 118.164 40;" xml:space="preserve">
<g>
	<polygon style="fill:#FFFFFF;" points="71.543,6.706 63.698,12.414 58.719,8.792 60.151,7.751 63.698,10.33 68.679,6.706 
		63.698,3.083 50.869,12.414 43.024,6.706 50.869,1 55.852,4.625 54.421,5.666 50.869,3.083 45.887,6.706 50.869,10.33 63.698,1 
		71.543,6.706 	"/>
	<g>
		<path style="fill:#FFFFFF;" d="M10.064,19.688v9.383H8.233v-9.383H2.954v-1.663h12.388v1.663H10.064z"/>
		<path style="fill:#FFFFFF;" d="M27.669,29.071v-4.897h-8.849v4.897H16.99V18.025h1.831v4.486h8.849v-4.486H29.5v11.046H27.669z"/>
	</g>
	<g>
		<path style="fill:#FFFFFF;" d="M32.313,29.071V18.025h11.137v1.663h-9.307v2.823h6.469v1.663h-6.469v3.234h9.734v1.663H32.313z"/>
	</g>
	<g>
		<path style="fill:#FFFFFF;" d="M52.493,19.688v2.823h6.469v1.663h-6.469v4.897h-1.831V18.025h11.137v1.663H52.493z"/>
		<path style="fill:#FFFFFF;" d="M72.22,29.071l-1.282-2.472h-7.43l-1.282,2.472h-1.999l5.843-11.046h2.304l5.843,11.046H72.22z
			 M67.231,19.597l-2.823,5.34h5.63L67.231,19.597z"/>
	</g>
	<g>
		<path style="fill:#FFFFFF;" d="M75.789,29.071V18.025h1.831v9.383h8.529v1.663H75.789z"/>
		<path style="fill:#FFFFFF;" d="M87.491,29.071V18.025h1.831v9.383h8.529v1.663H87.491z"/>
	</g>
	<g>
		<path style="fill:#FFFFFF;" d="M106.648,19.673c-0.819-0.203-1.665-0.305-2.54-0.305c-1.149,0-2.019,0.135-2.609,0.404
			c-0.59,0.27-0.885,0.633-0.885,1.091c0,0.488,0.32,0.844,0.961,1.068c0.305,0.112,0.644,0.191,1.015,0.237
			c0.371,0.045,0.778,0.081,1.22,0.107c0.442,0.025,0.918,0.053,1.427,0.084c0.508,0.031,1.042,0.081,1.602,0.153
			c1.383,0.173,2.405,0.509,3.067,1.007c0.661,0.498,0.991,1.211,0.991,2.136c0,1.17-0.511,2.075-1.533,2.716
			c-1.022,0.641-2.52,0.961-4.493,0.961c-1.414,0-2.662-0.15-3.745-0.45c-1.083-0.3-2.027-0.77-2.83-1.411l1.007-1.327
			c0.895,0.549,1.795,0.951,2.7,1.205c0.905,0.254,1.867,0.381,2.884,0.381c1.322,0,2.324-0.175,3.005-0.526
			c0.681-0.351,1.022-0.826,1.022-1.426c0-0.397-0.115-0.702-0.343-0.915c-0.229-0.213-0.562-0.376-0.999-0.488
			c-0.437-0.112-0.974-0.191-1.61-0.236c-0.636-0.046-1.36-0.094-2.174-0.145c-0.854-0.061-1.599-0.145-2.235-0.252
			c-0.636-0.107-1.167-0.267-1.595-0.481c-0.427-0.214-0.747-0.493-0.961-0.839c-0.214-0.346-0.321-0.783-0.321-1.312
			c0-1.037,0.478-1.856,1.434-2.456c0.956-0.6,2.334-0.9,4.134-0.9c2.38,0,4.373,0.544,5.981,1.632l-1.114,1.236
			C108.288,20.192,107.467,19.877,106.648,19.673z"/>
	</g>
	<g>
		<path style="fill:#FFFFFF;" d="M28.341,38.879l-0.486-0.937h-2.817l-0.486,0.937h-0.758l2.216-4.189h0.873l2.216,4.189H28.341z
			 M26.449,35.286l-1.07,2.025h2.135L26.449,35.286z"/>
		<path style="fill:#FFFFFF;" d="M35.986,35.315c-0.31-0.077-0.632-0.116-0.963-0.116c-0.436,0-0.766,0.051-0.989,0.153
			c-0.224,0.102-0.335,0.24-0.335,0.414c0,0.185,0.121,0.32,0.364,0.405c0.116,0.043,0.244,0.072,0.385,0.089
			c0.141,0.017,0.295,0.031,0.463,0.041c0.168,0.009,0.348,0.02,0.541,0.032c0.193,0.012,0.395,0.031,0.608,0.058
			c0.524,0.066,0.912,0.193,1.163,0.382c0.25,0.189,0.376,0.459,0.376,0.81c0,0.444-0.194,0.787-0.581,1.03
			c-0.388,0.243-0.956,0.365-1.704,0.365c-0.536,0-1.01-0.057-1.42-0.171c-0.411-0.114-0.769-0.292-1.073-0.535l0.382-0.503
			c0.339,0.208,0.681,0.361,1.024,0.457c0.343,0.096,0.708,0.145,1.093,0.145c0.501,0,0.881-0.067,1.14-0.2
			c0.258-0.133,0.388-0.313,0.388-0.541c0-0.151-0.043-0.266-0.13-0.347c-0.087-0.081-0.213-0.143-0.379-0.185
			s-0.369-0.072-0.61-0.09c-0.241-0.017-0.516-0.036-0.825-0.055c-0.324-0.023-0.606-0.055-0.847-0.096
			c-0.241-0.04-0.443-0.101-0.605-0.182c-0.162-0.081-0.283-0.187-0.364-0.318c-0.081-0.131-0.121-0.297-0.121-0.498
			c0-0.393,0.181-0.704,0.544-0.931c0.362-0.227,0.885-0.341,1.568-0.341c0.903,0,1.658,0.206,2.268,0.619l-0.422,0.469
			C36.608,35.512,36.296,35.392,35.986,35.315z"/>
		<path style="fill:#FFFFFF;" d="M39.501,38.879V34.69h0.694v4.189H39.501z"/>
		<path style="fill:#FFFFFF;" d="M47.473,38.879v-3.425h-0.017l-2.175,2.73l-2.158-2.73h-0.017v3.425h-0.694V34.69h0.862
			l2.013,2.534l2.019-2.534h0.862v4.189H47.473z"/>
		<path style="fill:#FFFFFF;" d="M55.544,36.779c0,0.686-0.282,1.242-0.845,1.666c-0.231,0.173-0.504,0.309-0.819,0.408
			C53.566,38.951,53.226,39,52.859,39c-0.366,0-0.709-0.05-1.027-0.151c-0.318-0.1-0.593-0.237-0.824-0.41
			c-0.563-0.424-0.845-0.978-0.845-1.66c0-0.671,0.285-1.223,0.856-1.655c0.235-0.177,0.51-0.316,0.824-0.416
			c0.314-0.1,0.653-0.151,1.015-0.151c0.359,0,0.696,0.05,1.013,0.151c0.316,0.1,0.59,0.239,0.821,0.416
			C55.26,35.556,55.544,36.107,55.544,36.779z M54.82,36.779c0-0.488-0.208-0.887-0.625-1.196c-0.17-0.124-0.368-0.221-0.596-0.29
			c-0.228-0.069-0.474-0.104-0.741-0.104c-0.293,0-0.56,0.04-0.801,0.119c-0.241,0.079-0.448,0.19-0.622,0.331
			c-0.174,0.141-0.308,0.309-0.405,0.505c-0.096,0.195-0.145,0.408-0.145,0.636c0,0.236,0.046,0.452,0.139,0.647
			c0.093,0.196,0.225,0.363,0.396,0.502c0.172,0.139,0.379,0.248,0.622,0.325c0.243,0.077,0.515,0.116,0.816,0.116
			c0.301,0,0.572-0.039,0.813-0.116c0.241-0.077,0.446-0.186,0.616-0.325c0.17-0.139,0.301-0.307,0.394-0.502
			C54.774,37.231,54.82,37.015,54.82,36.779z"/>
		<path style="fill:#FFFFFF;" d="M61.439,38.879l-3.205-3.436v3.436h-0.694V34.69h0.862l3.199,3.436V34.69h0.694v4.189H61.439z"/>
		<path style="fill:#FFFFFF;" d="M72.124,38.879v-3.425h-0.017l-2.176,2.73l-2.158-2.73h-0.017v3.425h-0.694V34.69h0.862
			l2.013,2.534l2.019-2.534h0.862v4.189H72.124z"/>
		<path style="fill:#FFFFFF;" d="M78.968,38.879l-0.486-0.937h-2.818l-0.486,0.937h-0.758l2.216-4.189h0.874l2.216,4.189H78.968z
			 M77.077,35.286l-1.07,2.025h2.135L77.077,35.286z"/>
		<path style="fill:#FFFFFF;" d="M81.329,38.879V34.69h0.694v3.558h3.234v0.631H81.329z"/>
	</g>
	<g>
		<path style="fill:#FFFFFF;" d="M86.809,38.879V34.69h0.694v3.558h3.234v0.631H86.809z"/>
	</g>
	<path style="fill:#FFFFFF;" d="M113.485,18.855v-0.549h0.334c0.178,0,0.298,0.108,0.298,0.277c0,0.165-0.12,0.271-0.298,0.271
		H113.485L113.485,18.855z M114.081,19.707h0.254l-0.376-0.67c0.238-0.045,0.382-0.223,0.382-0.453c0-0.264-0.184-0.475-0.482-0.475
		h-0.594v1.599h0.22v-0.654h0.236L114.081,19.707L114.081,19.707z M113.766,20.351c-0.796,0-1.444-0.648-1.444-1.444
		c0-0.796,0.647-1.444,1.444-1.444c0.796,0,1.444,0.648,1.444,1.444C115.21,19.703,114.562,20.351,113.766,20.351L113.766,20.351z
		 M113.766,17.686c-0.673,0-1.22,0.548-1.22,1.221c0,0.673,0.547,1.221,1.22,1.221c0.673,0,1.221-0.548,1.221-1.221
		C114.987,18.234,114.439,17.686,113.766,17.686L113.766,17.686z"/>
</g>
</svg>
